<svg id="Layer_1" data-name="Layer 1" xmlns="http://www.w3.org/2000/svg" viewBox="0 0 222 45"><defs><style>.cls-1{fill:#231f20;}.cls-2{fill:#bc273a;}</style></defs><polygon class="cls-1" points="87.07 23.74 75.75 23.74 75.75 12.64 70.73 12.64 70.73 40.16 75.75 40.16 75.75 28.98 87.07 28.98 87.07 40.16 92.08 40.16 92.08 12.64 87.07 12.64 87.07 23.74"/><path class="cls-1" d="M115.31,28.39c0,4.48-2,6.86-5.62,6.86S104,32.8,104,28.2V12.65H99V28.39c0,7.74,3.86,12.18,10.59,12.18s10.7-4.52,10.7-12.41V12.64h-5Z"/><polygon class="cls-1" points="173.25 31.56 167.63 12.63 163.54 12.63 157.93 31.56 152.48 12.65 147.14 12.65 155.75 40.16 159.9 40.16 165.52 22.09 171.14 40.16 175.32 40.16 183.91 12.65 178.72 12.65 173.25 31.56"/><polygon class="cls-1" points="192.9 28.32 202.02 28.32 202.02 23.3 192.9 23.3 192.9 17.67 206.14 17.67 206.14 12.66 187.96 12.66 187.96 40.14 206.61 40.14 206.61 35.13 192.9 35.13 192.9 28.32"/><rect class="cls-1" x="212.59" y="12.64" width="4.95" height="27.48"/><path class="cls-1" d="M133.75,12.64l-10.89,27.5H128l2.25-5.73h11.31l2.21,5.73H149l-10.85-27.5Zm-1.66,16.81,3.78-9.85,3.8,9.85Z"/><path class="cls-2" d="M59.32,17.34c.35-5.24-5.17-10.08-5.17-10.08a138.2,138.2,0,0,0-17.7,27.37.24.24,0,0,0,0,.28.27.27,0,0,0,.29,0c2.8-1.32,14.43-7,19.32-11.49A8.91,8.91,0,0,0,59.32,17.34Zm-13-11.81A8.84,8.84,0,0,0,39.79-.23S38.3-.59,36.71-.81c0,0-5.81,7.13-3,34a.23.23,0,0,0,.16.21.26.26,0,0,0,.28-.11C36,30.76,44.51,18.76,46.23,11.46,46.23,11.46,47.17,7.92,46.27,5.53Zm-8,33.21a.23.23,0,0,0,.06.29c1.87,1.28,7.56,5.07,10.3,5.81,0,0,5.06,1.64,9.46-5.56l-19.62-.66A.27.27,0,0,0,38.31,38.74Zm25-16S46.69,31.28,38.08,36.82a.22.22,0,0,0-.1.26.21.21,0,0,0,.2.15c3.09,0,14.76,0,15,0a12.31,12.31,0,0,0,3.37-.74,11.36,11.36,0,0,0,6.31-5.76A10.83,10.83,0,0,0,63.35,22.75ZM26,36.82C17.38,31.28.73,22.75.73,22.75a10.8,10.8,0,0,0,.43,8,11.36,11.36,0,0,0,6.31,5.76,12.31,12.31,0,0,0,3.37.74c.29,0,12,0,15.05,0a.21.21,0,0,0,.2-.15A.22.22,0,0,0,26,36.82Zm-.43,1.8-19.62.66c4.4,7.2,9.46,5.56,9.46,5.56,2.74-.74,8.43-4.53,10.3-5.81a.22.22,0,0,0,.06-.29A.27.27,0,0,0,25.56,38.62ZM24.28-.23A8.87,8.87,0,0,0,17.8,5.53c-.9,2.39,0,5.93,0,5.93,1.72,7.3,10.21,19.3,12.07,21.86a.26.26,0,0,0,.28.11.23.23,0,0,0,.16-.21c2.82-26.9-3-34-3-34C25.78-.59,24.28-.23,24.28-.23ZM9.92,7.26S4.4,12.1,4.75,17.34A8.91,8.91,0,0,0,8,23.45c4.9,4.46,16.52,10.17,19.32,11.49a.27.27,0,0,0,.29,0,.23.23,0,0,0,0-.28A138.2,138.2,0,0,0,9.92,7.26Z"/></svg>